<svg width="37" height="34" fill="none" xmlns="http://www.w3.org/2000/svg"><path d="M3.26 6.07c.467-1.466 1.421-2.74 1.84-3.193 2.524-2.2 4.994-1.434 6.863 0l22.94 22.952c-6.826.367-21.684.308-26.5-2.868-4.594-3.028-5.511-10.2-5.429-14.244m.286-2.646L.837 8.717h2.137m.286-2.646c-.138.434-.26 1.39-.286 2.646" stroke="#9D4605" stroke-width="1.398" stroke-linejoin="round"/><path d="m30.205 26.05 6.095 5.951c-.956.784-3.248 2.116-4.773 1.175-1.525-.94-5.87-5.142-7.853-7.125" stroke="#9D4605" stroke-width=".876" stroke-linejoin="round"/><path d="M32.466 23.227c-2.374.047-8.248-.43-11.068-3.718-2.819-3.288-2.888-7.638-2.57-9.402" stroke="#9D4605" stroke-width=".874" stroke-linejoin="round"/><path d="M32.466 25.996c-2.874.056-13.27-.82-16.682-4.801-3.414-3.982 1.056-10.32 2.393-11.894" stroke="#9D4605" stroke-width=".874" stroke-linejoin="round"/><path d="m18.34 25.548 1.669 3.031m-3.103-3.186L15.791 27.3" stroke="#9D4605" stroke-width=".874" stroke-linecap="round" stroke-linejoin="round"/><ellipse rx=".99" ry=".991" transform="matrix(-1 0 0 1 7.7 7.46)" fill="#9D4605"/><path d="m27.567 26.354 6.797 6.638" stroke="#9D4605" stroke-width=".515" stroke-linecap="round" stroke-linejoin="round"/></svg>