<svg xmlns="http://www.w3.org/2000/svg" width="50" height="50" viewBox="0 0 383 383"><path style="stroke:none;fill-rule:nonzero;fill:#000;fill-opacity:1" d="M312.352 191.469c0-66.125-53.899-119.922-120.157-119.922-66.25 0-120.152 53.797-120.152 119.922s53.902 119.918 120.152 119.918c66.258 0 120.157-53.793 120.157-119.918Zm-137.504 72.265c-6.094-16.336-9.84-37.453-10.801-60.398h56.305c-.97 22.941-4.711 44.062-10.801 60.398-7.059 18.922-14.438 23.918-17.356 23.918-2.914 0-10.293-4.996-17.347-23.918Zm17.347-168.457c2.918 0 10.297 5 17.356 23.926 6.09 16.332 9.836 37.45 10.8 60.399h-56.304c.965-22.95 4.707-44.067 10.8-60.399 7.055-18.926 14.438-23.922 17.348-23.922Zm36.008 185.41c9.41-20.308 14.79-48.433 15.945-77.355h43.692c-4.356 35.168-27.8 64.508-59.637 77.356Zm59.637-101.085h-43.692c-1.156-28.918-6.535-57.047-15.949-77.352 31.84 12.84 55.285 42.184 59.64 77.352ZM156.195 102.25c-9.414 20.305-14.793 48.434-15.945 77.352H96.555c4.355-35.168 27.804-64.512 59.64-77.352ZM96.56 203.336h43.691c1.156 28.914 6.531 57.043 15.945 77.351-31.836-12.843-55.285-42.187-59.636-77.351Zm0 0"/><path style="stroke:none;fill-rule:nonzero;fill:#000;fill-opacity:1" d="M352.277 85.883a38.853 38.853 0 0 0 6.403-21.403c0-21.593-17.61-39.168-39.246-39.168-21.645 0-39.25 17.57-39.25 39.168 0 21.602 17.605 39.172 39.25 39.172 4.875.004 9.71-.906 14.253-2.683 41.684 64.894 34.137 152.398-22.664 209.09-47.894 47.804-119.39 62.25-182.148 36.808-6.086-2.465-13.02.461-15.492 6.531-2.469 6.075.46 12.997 6.543 15.461C143.398 378.375 167.94 383 192.258 383c49.894 0 98.828-19.477 135.582-56.156 36.23-36.16 56.183-84.239 56.183-135.375 0-38.117-11.09-74.535-31.742-105.586ZM303.965 64.48c0-8.511 6.937-15.433 15.469-15.433 8.527 0 15.464 6.922 15.464 15.433 0 8.516-6.937 15.442-15.464 15.442-8.532 0-15.47-6.926-15.47-15.442ZM64.992 279.254a39.084 39.084 0 0 0-14.293 2.7C9.027 217.058 16.574 129.561 73.375 72.874c46.422-46.332 116.184-61.46 177.715-38.535 6.152 2.293 13-.828 15.297-6.965 2.297-6.14-.828-12.977-6.98-15.27-34-12.668-70.802-15.457-106.423-8.066-36.562 7.59-69.91 25.586-96.425 52.055C20.329 92.254.375 140.328.375 191.469c0 38.12 11.094 74.539 31.75 105.59a38.855 38.855 0 0 0-6.375 21.363c0 10.46 4.082 20.3 11.492 27.7 7.414 7.398 17.27 11.472 27.754 11.472 21.64 0 39.246-17.57 39.246-39.172 0-21.598-17.605-39.168-39.25-39.168Zm0 54.605a15.367 15.367 0 0 1-10.933-4.52 15.326 15.326 0 0 1-4.532-10.917c0-8.512 6.938-15.438 15.465-15.438 8.531 0 15.469 6.926 15.469 15.438s-6.938 15.437-15.469 15.437Zm0 0"/></svg>