<svg width="37" height="34" viewBox="0 0 37 34" fill="none" xmlns="http://www.w3.org/2000/svg">
<path d="M3.26025 6.07077C3.72717 4.60423 4.68122 3.33086 5.09988 2.87749C7.62364 0.677684 10.0942 1.44348 11.9634 2.87749L34.9033 25.8291C28.0768 26.1963 13.2194 26.1366 8.40234 22.9611C3.80863 19.9328 2.89153 12.7613 2.97405 8.71704M3.26025 6.07077L0.836963 8.71704H2.97405M3.26025 6.07077C3.12187 6.50539 2.99969 7.46021 2.97405 8.71704" stroke="#9D4605" stroke-width="1.39834" stroke-linejoin="round"/>
<path d="M30.2047 26.0508L36.2998 32.0012C35.3443 32.7847 33.052 34.1168 31.5271 33.1765C30.0022 32.2363 25.6561 28.0343 23.6736 26.0508" stroke="#9D4605" stroke-width="0.876007" stroke-linejoin="round"/>
<path d="M32.4658 23.2272C30.0918 23.274 24.2178 22.797 21.3985 19.5091C18.5792 16.2212 18.5098 11.8709 18.8275 10.1067" stroke="#9D4605" stroke-width="0.873964" stroke-linejoin="round"/>
<path d="M32.4658 25.9956C29.5917 26.0523 19.1967 25.1761 15.7836 21.1945C12.3705 17.2129 16.8401 10.8755 18.1773 9.30103" stroke="#9D4605" stroke-width="0.873964" stroke-linejoin="round"/>
<path d="M18.3391 25.5483L20.0088 28.579" stroke="#9D4605" stroke-width="0.873964" stroke-linecap="round" stroke-linejoin="round"/>
<path d="M16.9062 25.3931L15.7907 27.3002" stroke="#9D4605" stroke-width="0.873964" stroke-linecap="round" stroke-linejoin="round"/>
<ellipse rx="0.990001" ry="0.990505" transform="matrix(-1 0 0 1 7.70043 7.46048)" fill="#9D4605"/>
<path d="M27.5672 26.354L34.3643 32.9919" stroke="#9D4605" stroke-width="0.515298" stroke-linecap="round" stroke-linejoin="round"/>
</svg>
