<svg viewBox="0 0 511 511.999" xmlns="http://www.w3.org/2000/svg"><path d="M416.742 255.957c0-88.398-71.914-160.312-160.312-160.312-88.395 0-160.309 71.914-160.309 160.312 0 88.395 71.914 160.309 160.309 160.309 88.398 0 160.312-71.914 160.312-160.309zm-183.46 96.606c-8.13-21.836-13.126-50.07-14.41-80.743h75.12c-1.289 30.672-6.281 58.907-14.41 80.743-9.414 25.296-19.262 31.976-23.152 31.976-3.89 0-13.735-6.68-23.149-31.976zM256.43 127.37c3.89 0 13.738 6.684 23.152 31.98 8.129 21.837 13.125 50.067 14.41 80.743h-75.12c1.288-30.676 6.28-58.906 14.41-80.742 9.413-25.297 19.261-31.98 23.148-31.98zm48.039 247.856c12.558-27.149 19.734-64.747 21.273-103.407h58.297c-5.812 47.012-37.094 86.235-79.57 103.407zm79.57-135.133h-58.297c-1.543-38.66-8.715-76.258-21.277-103.406 42.48 17.167 73.762 56.394 79.574 103.406zM208.395 136.688c-12.56 27.144-19.735 64.746-21.274 103.406h-58.297c5.813-47.012 37.098-86.239 79.57-103.406zM128.828 271.82h58.293c1.543 38.657 8.715 76.258 21.277 103.407-42.476-17.172-73.761-56.395-79.57-103.407zm0 0"/><path d="M470.012 114.809a52.044 52.044 0 0 0 8.539-28.61c0-28.87-23.492-52.363-52.363-52.363-28.875 0-52.368 23.492-52.368 52.363 0 28.875 23.493 52.367 52.368 52.367a52.092 52.092 0 0 0 19.019-3.59c55.617 86.75 45.547 203.731-30.238 279.516-63.899 63.903-159.293 83.215-243.024 49.207-8.12-3.297-17.37.613-20.668 8.73-3.297 8.118.614 17.372 8.73 20.669C191.325 505.816 224.07 512 256.513 512c66.566 0 131.855-26.035 180.89-75.07 48.34-48.34 74.961-112.61 74.961-180.973 0-50.957-14.797-99.64-42.351-141.148zm-64.461-28.61c0-11.379 9.258-20.633 20.637-20.633s20.636 9.254 20.636 20.633c0 11.383-9.258 20.64-20.637 20.64s-20.636-9.257-20.636-20.64zM86.715 373.309a52.1 52.1 0 0 0-19.07 3.609c-55.602-86.75-45.532-203.719 30.25-279.5 61.94-61.938 155.015-82.16 237.109-51.512 8.207 3.067 17.348-1.105 20.41-9.312 3.066-8.207-1.105-17.348-9.312-20.41C300.738-.75 251.64-4.48 204.113 5.398 155.328 15.543 110.84 39.605 75.461 74.984 27.12 123.324.5 187.594.5 255.957c0 50.961 14.8 99.645 42.36 141.156a52.036 52.036 0 0 0-8.505 28.559c0 13.984 5.446 27.137 15.336 37.027s23.04 15.336 37.028 15.336c28.87 0 52.363-23.488 52.363-52.363s-23.492-52.363-52.367-52.363zm0 73a20.487 20.487 0 0 1-14.59-6.043 20.507 20.507 0 0 1-6.047-14.594c0-11.379 9.258-20.637 20.637-20.637s20.637 9.258 20.637 20.637-9.258 20.637-20.637 20.637zm0 0"/></svg>