<?xml version="1.0" encoding="UTF-8"?>
<svg xmlns="http://www.w3.org/2000/svg" xmlns:xlink="http://www.w3.org/1999/xlink" width="50px" height="50px" viewBox="0 0 383 383" version="1.1">
<g id="surface1">
<path style=" stroke:none;fill-rule:nonzero;fill:rgb(0%,0%,0%);fill-opacity:1;" d="M 312.351562 191.46875 C 312.351562 125.34375 258.453125 71.546875 192.195312 71.546875 C 125.945312 71.546875 72.042969 125.34375 72.042969 191.46875 C 72.042969 257.59375 125.945312 311.386719 192.195312 311.386719 C 258.453125 311.386719 312.351562 257.59375 312.351562 191.46875 Z M 174.847656 263.734375 C 168.753906 247.398438 165.007812 226.28125 164.046875 203.335938 L 220.351562 203.335938 C 219.382812 226.277344 215.640625 247.398438 209.550781 263.734375 C 202.492188 282.65625 195.113281 287.652344 192.195312 287.652344 C 189.28125 287.652344 181.902344 282.65625 174.847656 263.734375 Z M 192.195312 95.277344 C 195.113281 95.277344 202.492188 100.277344 209.550781 119.203125 C 215.640625 135.535156 219.386719 156.652344 220.351562 179.601562 L 164.046875 179.601562 C 165.011719 156.652344 168.753906 135.535156 174.847656 119.203125 C 181.902344 100.277344 189.285156 95.28125 192.195312 95.28125 Z M 228.203125 280.6875 C 237.613281 260.378906 242.992188 232.253906 244.148438 203.332031 L 287.839844 203.332031 C 283.484375 238.5 260.039062 267.839844 228.203125 280.6875 Z M 287.839844 179.601562 L 244.148438 179.601562 C 242.992188 150.683594 237.613281 122.554688 228.199219 102.25 C 260.039062 115.089844 283.484375 144.433594 287.839844 179.601562 Z M 156.195312 102.25 C 146.78125 122.554688 141.402344 150.683594 140.25 179.601562 L 96.554688 179.601562 C 100.910156 144.433594 124.359375 115.089844 156.195312 102.25 Z M 96.558594 203.335938 L 140.25 203.335938 C 141.40625 232.25 146.78125 260.378906 156.195312 280.6875 C 124.359375 267.84375 100.910156 238.5 96.558594 203.335938 Z M 96.558594 203.335938 "/>
<path style=" stroke:none;fill-rule:nonzero;fill:rgb(0%,0%,0%);fill-opacity:1;" d="M 352.277344 85.882812 C 356.460938 79.527344 358.6875 72.085938 358.679688 64.480469 C 358.679688 42.886719 341.070312 25.3125 319.433594 25.3125 C 297.789062 25.3125 280.183594 42.882812 280.183594 64.480469 C 280.183594 86.082031 297.789062 103.652344 319.433594 103.652344 C 324.308594 103.65625 329.144531 102.746094 333.6875 100.96875 C 375.371094 165.863281 367.824219 253.367188 311.023438 310.058594 C 263.128906 357.863281 191.632812 372.308594 128.875 346.867188 C 122.789062 344.402344 115.855469 347.328125 113.382812 353.398438 C 110.914062 359.472656 113.84375 366.394531 119.925781 368.859375 C 143.398438 378.375 167.941406 383 192.257812 383 C 242.152344 383 291.085938 363.523438 327.839844 326.84375 C 364.070312 290.683594 384.023438 242.605469 384.023438 191.46875 C 384.023438 153.351562 372.933594 116.933594 352.28125 85.882812 Z M 303.964844 64.480469 C 303.964844 55.96875 310.902344 49.046875 319.433594 49.046875 C 327.960938 49.046875 334.898438 55.96875 334.898438 64.480469 C 334.898438 72.996094 327.960938 79.921875 319.433594 79.921875 C 310.902344 79.921875 303.964844 72.996094 303.964844 64.480469 Z M 64.992188 279.253906 C 60.101562 279.25 55.253906 280.167969 50.699219 281.953125 C 9.027344 217.058594 16.574219 129.5625 73.375 72.875 C 119.796875 26.542969 189.558594 11.414062 251.089844 34.339844 C 257.242188 36.632812 264.089844 33.511719 266.386719 27.375 C 268.683594 21.234375 265.558594 14.398438 259.40625 12.105469 C 225.40625 -0.5625 188.605469 -3.351562 152.984375 4.039062 C 116.421875 11.628906 83.074219 29.625 56.558594 56.09375 C 20.328125 92.253906 0.375 140.328125 0.375 191.46875 C 0.375 229.589844 11.46875 266.007812 32.125 297.058594 C 27.957031 303.410156 25.742188 310.832031 25.75 318.421875 C 25.75 328.882812 29.832031 338.722656 37.242188 346.121094 C 44.65625 353.519531 54.511719 357.59375 64.996094 357.59375 C 86.636719 357.59375 104.242188 340.023438 104.242188 318.421875 C 104.242188 296.824219 86.636719 279.253906 64.992188 279.253906 Z M 64.992188 333.859375 C 60.890625 333.871094 56.953125 332.246094 54.058594 329.339844 C 51.148438 326.449219 49.515625 322.519531 49.527344 318.421875 C 49.527344 309.910156 56.464844 302.984375 64.992188 302.984375 C 73.523438 302.984375 80.460938 309.910156 80.460938 318.421875 C 80.460938 326.933594 73.523438 333.859375 64.992188 333.859375 Z M 64.992188 333.859375 "/>
</g>
</svg>
